<svg xmlns="http://www.w3.org/2000/svg" xmlns:xlink="http://www.w3.org/1999/xlink" viewBox="3980 0 1367 392"><defs><style>.a{clip-path:url(#c);}.b,.u{fill:#fff;}.b{stroke:#464a4c;}.c,.f{fill:#464a4c;}.c{font-size:14px;font-family:FontAwesome;}.d{font-family:Helvetica;}.e,.i,.p{font-family:Roboto-Regular, Roboto;}.f,.q,.r{fill-rule:evenodd;}.g{fill:#88fcfc;}.h,.o,.r{fill:#ea118d;}.h,.p{font-size:10px;}.h,.o{font-family:Roboto-Bold, Roboto;font-weight:700;}.i,.p{font-weight:400;}.j{fill:#666;}.k{fill:#babcbc;}.l{fill:#999;}.m{fill:#ccc;}.n,.q,.s{fill:none;}.n{stroke:#c7caca;}.o{font-size:12px;}.q{stroke:#ea118d;}.t{fill:url(#a);}</style><linearGradient id="a" x1="0.5" x2="0.5" y2="1" gradientUnits="objectBoundingBox"><stop offset="0" stop-color="#fff" stop-opacity="0"/><stop offset="1" stop-color="#fff"/></linearGradient><clipPath id="c"><rect x="3980" width="1367" height="392"/></clipPath></defs><g id="b" class="a"><rect class="u" x="3980" width="1367" height="392"/><g transform="translate(3980 -106)"><path class="b" d="M1.877,0H151.123A1.942,1.942,0,0,1,153,2V36a1.942,1.942,0,0,1-1.877,2H1.877A1.942,1.942,0,0,1,0,36V2A1.942,1.942,0,0,1,1.877,0Z" transform="translate(984.5 131.5)"/><text class="c" transform="translate(1005 155)"><tspan x="0" y="0"></tspan><tspan class="d" y="0"> </tspan><tspan class="e" y="0">USER NAME</tspan></text><path class="f" d="M96,19.667a.608.608,0,0,1-.223.469L90.527,24.8a.8.8,0,0,1-1.055,0l-5.25-4.667a.6.6,0,0,1,0-.937.768.768,0,0,1,.527-.2h10.5a.767.767,0,0,1,.527.2.608.608,0,0,1,.223.469Z" transform="translate(1021 129)"/><rect class="b" width="198" height="38" rx="2" transform="translate(1147.5 131.5)"/><text class="c" transform="translate(1168 155)"><tspan x="0" y="0"></tspan><tspan class="e" y="0" xml:space="preserve"> DEVELOPER TOOLS</tspan></text><path class="f" d="M96,19.667a.608.608,0,0,1-.223.469L90.527,24.8a.8.8,0,0,1-1.055,0l-5.25-4.667a.6.6,0,0,1,0-.937.768.768,0,0,1,.527-.2h10.5a.767.767,0,0,1,.527.2.608.608,0,0,1,.223.469Z" transform="translate(1229 129)"/></g><path class="g" d="M0,0H197a0,0,0,0,1,0,0V10a2,2,0,0,1-2,2H2a2,2,0,0,1-2-2V0A0,0,0,0,1,0,0Z" transform="translate(5128 51)"/><path class="g" d="M2,0H195a2,2,0,0,1,2,2V12a0,0,0,0,1,0,0H0a0,0,0,0,1,0,0V2A2,2,0,0,1,2,0Z" transform="translate(5128 26)"/><text class="h" transform="translate(5227 34.5)"><tspan x="-10.386" y="0">H</tspan><tspan class="i" y="0" xml:space="preserve"> 12</tspan></text><text class="h" transform="translate(5227 61.5)"><tspan x="-10.386" y="0">H</tspan><tspan class="i" y="0" xml:space="preserve"> 12</tspan></text><path class="g" d="M2,0H20a0,0,0,0,1,0,0V37a0,0,0,0,1,0,0H2a2,2,0,0,1-2-2V2A2,2,0,0,1,2,0Z" transform="translate(4965 26)"/><path class="g" d="M0,0H18a2,2,0,0,1,2,2V35a2,2,0,0,1-2,2H0a0,0,0,0,1,0,0V0A0,0,0,0,1,0,0Z" transform="translate(5097 26)"/><text class="h" transform="translate(4975 43.5)"><tspan x="-2.739" y="0">F</tspan><tspan class="i"><tspan x="-5.615" y="11">20</tspan></tspan></text><text class="h" transform="translate(5107 43.5)"><tspan x="-2.739" y="0">F</tspan><tspan class="i"><tspan x="-5.615" y="11">20</tspan></tspan></text><rect class="g" width="1366.5" height="20" transform="translate(3980)"/><rect class="g" width="1367" height="40" transform="translate(3980 68)"/><rect class="g" width="20" height="392" transform="translate(5326)"/><rect class="g" width="40" height="60" transform="translate(4048 118)"/><g transform="translate(4068 10)"><rect class="j" width="400" height="48" transform="translate(20 10)"/><g transform="translate(193.009 17.281)"><ellipse class="k" cx="4.785" cy="4.853" rx="4.785" ry="4.853" transform="translate(23.227 5.347)"/><path class="l" d="M2704.855,307.563l16.357-21.007,18.653,21.007Z" transform="translate(-2704.855 -286.556)"/><path class="m" d="M2734.929,312.289l21.736-16.249,17.736,16.249Z" transform="translate(-2720.053 -291.282)"/><line class="n" x2="9.621" transform="translate(23.295 23.528)"/><line class="n" x2="6.431" transform="translate(24.779 28.545)"/><line class="n" x2="7.915" transform="translate(24.284 26.037)"/><line class="n" x2="4.947" transform="translate(25.768 31.054)"/><line class="n" x2="2.473" transform="translate(26.757 33.562)"/></g></g><rect class="g" width="20" height="392" transform="translate(3980)"/><text class="h" transform="translate(4024 147)"><tspan x="-3.25" y="0">D</tspan><tspan class="i"><tspan x="-5.615" y="11">48</tspan></tspan></text><text class="h" transform="translate(4068 147)"><tspan x="-2.813" y="0">E</tspan><tspan class="i"><tspan x="-5.615" y="11">40</tspan></tspan></text><text class="o" transform="translate(4288 142)"><tspan x="-127.614" y="0">Customer logo max width: 400 / max height: 48</tspan><tspan x="-86.927" y="14">Sized proportionally, aligned left</tspan><tspan class="p"><tspan x="-71.094" y="26">max width: 400 / max height: 48</tspan></tspan></text><text class="o" transform="translate(4669 36)"><tspan x="-88.538" y="0">Header row is vertically centered</tspan><tspan x="-104.578" y="14">from tallest element (usually the logo).</tspan><tspan class="p"><tspan x="-33.904" y="26">max hieight: 48</tspan></tspan></text><path class="q" d="M344.5,0V60" transform="translate(3704 118)"/><path class="q" d="M344.5,0V60" transform="translate(4144 118)"/><path class="r" d="M344,261l-5-5.047L344,251" transform="translate(3704.5 -107.5)"/><path class="r" d="M344,261l-5-5.047L344,251" transform="translate(4144.5 -107.5)"/><path class="r" d="M344,261l-5-5.047L344,251" transform="translate(4777.5 -107.5)"/><path class="r" d="M344,261l-5-5.047L344,251" transform="translate(4982.5 -107.5)"/><path class="r" d="M18,251l5,4.818L18,261" transform="translate(3982.5 -107.5)"/><path class="r" d="M18,251l5,4.818L18,261" transform="translate(4069.5 -107.5)"/><path class="r" d="M18,251l5,4.818L18,261" transform="translate(5111.5 -107.5)"/><path class="q" d="M17.5,0V392" transform="translate(3983)"/><path class="q" d="M17.5,0V60" transform="translate(4070 118)"/><path class="q" d="M17.5,0V392" transform="translate(5309)"/><text class="h" transform="translate(3990 147)"><tspan x="-3.271" y="0">C</tspan><tspan class="i"><tspan x="-5.615" y="11">20</tspan></tspan></text><text class="h" transform="translate(5336 147)"><tspan x="-3.271" y="0">C</tspan><tspan class="i"><tspan x="-5.615" y="11">20</tspan></tspan></text><text class="h" transform="translate(4669 14)"><tspan x="-10.217" y="0">A</tspan><tspan class="i" y="0" xml:space="preserve"> 20</tspan></text><text class="h" transform="translate(4669 92)"><tspan x="-10.044" y="0">B</tspan><tspan class="i" y="0" xml:space="preserve"> 40</tspan></text><path class="q" d="M0,0V1326.015" transform="translate(5326.015 20.5) rotate(90)"/><path class="q" d="M0,0V1326.5" transform="translate(5326.5 68.5) rotate(90)"/><path class="q" d="M0,0V1326.5" transform="translate(5326.5 108.5) rotate(90)"/><path class="r" d="M344,261l-5-5.047L344,251" transform="translate(4925 -276) rotate(90)"/><path class="r" d="M344,261l-5-5.047L344,251" transform="translate(4413 365) rotate(-90)"/><path class="r" d="M344,261l-5-5.047L344,251" transform="translate(4413 453) rotate(-90)"/><text class="o" transform="translate(4020 218)"><tspan x="0" y="11">A: Layout begins 20px from top of page.</tspan><tspan x="0" y="25"></tspan><tspan x="0" y="39">B: There is 40px between the header and footer rows, and the page content between them.</tspan><tspan x="0" y="53"></tspan><tspan x="0" y="67">C: Layout is fluid, with 20px margin on the left and right side of all containers.</tspan><tspan class="p"><tspan x="0" y="79">Excludes elements intended to run full width.</tspan><tspan x="0" y="90"></tspan></tspan><tspan x="0" y="103">D: Hamburger menu is 48px wide on desktop breakpoint. Width is proportional to height, but is usually also 48px.</tspan><tspan x="0" y="117"></tspan><tspan x="0" y="131">E: There is 40px between the hamburger menu and the customer logo.</tspan></text><text class="o" transform="translate(4960 218)"><tspan x="0" y="11">F: Horizontal padding is 20px within this split button dropdown.</tspan><tspan x="0" y="25"></tspan><tspan x="0" y="39">G: For split button dropdowns, the dropdown toggle should be </tspan><tspan x="0" y="53">square in shape, based on the on the height of the element.</tspan><tspan x="0" y="67"></tspan><tspan x="0" y="81">H: Vertical padding is 10px within this split button dropdown.</tspan></text><g transform="translate(3980 8)"><rect class="s" width="48" height="48" transform="translate(20 12)"/><path class="f" d="M3,38H51V32.667H3V38ZM3,24.667H51V19.333H3v5.333ZM3,6v5.333H51V6Z" transform="translate(17 14)"/></g><rect class="g" width="8" height="60" transform="translate(5121.5 118)"/><path class="q" d="M344.5,0V60" transform="translate(4777 118)"/><path class="q" d="M17.5,0V60" transform="translate(5112 118)"/><text class="h" transform="translate(5126 189)"><tspan x="-8.318" y="0">I </tspan><tspan class="i" y="0">10</tspan></text><rect class="t" width="1367" height="214" transform="translate(3980 178)"/></g></svg>