<svg xmlns="http://www.w3.org/2000/svg" viewBox="0 0 1045.18 500.43"><defs><style>.cls-1{fill:#390000;}.cls-2{fill:#89181a;}.cls-3{fill:#ed1c24;}</style></defs><title>RedRobinTheVault-Final</title><g id="Vault"><circle class="cls-1" cx="20.12" cy="20.12" r="20.12"/><circle class="cls-1" cx="490.42" cy="20.12" r="20.12"/><circle class="cls-1" cx="20.12" cy="480.31" r="20.12"/><circle class="cls-1" cx="490.42" cy="480.31" r="20.12"/><path class="cls-1" d="M221.7,397.21a152.66,152.66,0,0,0,21.23,3.23l2.61-32.6a118.67,118.67,0,0,1-16.64-2.53Z"/><path class="cls-1" d="M268,367.57l3.49,32.5a152.09,152.09,0,0,0,21.14-3.78l-8-31.7A122.17,122.17,0,0,1,268,367.57Z"/><path class="cls-1" d="M175.47,378.26a150.63,150.63,0,0,0,19,10l13.1-30a116.48,116.48,0,0,1-14.9-7.82Z"/><path class="cls-1" d="M305.7,357l13.9,29.6a151,151,0,0,0,18.73-10.47l-17.92-27.34A119.58,119.58,0,0,1,305.7,357Z"/><path class="cls-1" d="M163.2,324.64l-25.26,20.77A154.89,154.89,0,0,0,152.67,361L174.8,336.9A120.85,120.85,0,0,1,163.2,324.64Z"/><path class="cls-1" d="M337.94,334.81l22.73,23.51a152.73,152.73,0,0,0,14.35-16l-25.81-20.1A118.07,118.07,0,0,1,337.94,334.81Z"/><path class="cls-1" d="M143.69,290.72,113,302.13a152.12,152.12,0,0,0,8.9,19.53L150.66,306A121.51,121.51,0,0,1,143.69,290.72Z"/><path class="cls-1" d="M361.29,303.36l29.13,14.86a152.73,152.73,0,0,0,8.39-19.78l-30.93-10.62A120.87,120.87,0,0,1,361.29,303.36Z"/><path class="cls-1" d="M136.29,252.28l-32.69.82a152.38,152.38,0,0,0,2,21.37l32.26-5.42A120.8,120.8,0,0,1,136.29,252.28Z"/><path class="cls-1" d="M373.1,266l32.39,4.58a155.14,155.14,0,0,0,1.5-21.4v-.56l-32.7.56A121.41,121.41,0,0,1,373.1,266Z"/><path class="cls-1" d="M141.7,213.49l-31.2-9.8a151,151,0,0,0-5,20.9l32.27,5.28A119.84,119.84,0,0,1,141.7,213.49Z"/><path class="cls-1" d="M372.09,226.36l32.1-6.23a151.29,151.29,0,0,0-5.58-20.75l-30.89,10.74A118.64,118.64,0,0,1,372.09,226.36Z"/><path class="cls-1" d="M159.45,178.62l-26.3-19.44a152.55,152.55,0,0,0-11.52,18.14l28.8,15.52A118,118,0,0,1,159.45,178.62Z"/><path class="cls-1" d="M386.67,173.34a152,152,0,0,0-12-17.76l-25.73,20.19a120.09,120.09,0,0,1,9.46,14Z"/><path class="cls-1" d="M187.57,151.32,169,124.43a152.06,152.06,0,0,0-16.75,13.43l22.22,24A119.74,119.74,0,0,1,187.57,151.32Z"/><path class="cls-1" d="M223,134.62l-8.88-31.48a152.71,152.71,0,0,0-20.21,7.27l13.23,29.9A121.4,121.4,0,0,1,223,134.62Z"/><path class="cls-1" d="M312.48,108.67A149.25,149.25,0,0,0,292,102l-7.89,31.74a117.46,117.46,0,0,1,16,5.22Z"/><path class="cls-1" d="M255.08,130.2a52.77,52.77,0,0,1,6.82.18l1.84-32.66c-2.81-.16-5.63-.23-8.45-.23-4.33,0-8.7.18-13,.54L245,130.62C248.38,130.34,251.74,130.2,255.08,130.2Z"/><path class="cls-2" d="M57.54,120.68A235.3,235.3,0,0,0,60.31,382l-4.38,4.38a39.35,39.35,0,0,0,0,55.5l12.55,12.55a39.38,39.38,0,0,0,55.5,0l5.62-5.62a235.18,235.18,0,0,0,254.19-1.85l7.47,7.47a39.35,39.35,0,0,0,55.5,0l12.55-12.54a39.38,39.38,0,0,0,0-55.5l-7.21-7.21a235.21,235.21,0,0,0,2.74-255.58l4.46-4.46a39.36,39.36,0,0,0,0-55.5L446.77,51.06a39.38,39.38,0,0,0-55.5,0L388,54.27a235.34,235.34,0,0,0-262.69-1.88L124,51.06a39.37,39.37,0,0,0-55.5,0L56,63.61a39.37,39.37,0,0,0,0,55.5ZM419.28,249.22c0,90.44-73.58,164-164,164s-164-73.57-164-164,73.58-164,164-164S419.28,158.78,419.28,249.22Z"/><path class="cls-3" d="M600.3,127.56h35.18L598,373.79H561.78L524.25,127.56h35.18L577.52,262.9l1.34,10.39h2l1.34-10.39Z"/><path class="cls-3" d="M625.09,373.79l37.19-246.23h44.22l37.19,246.23H708.5l-6.7-50.25H667l-6.7,50.25Zm61.31-166.16-1-6.37h-2l-1,6.37L672,285.35h24.79Z"/><path class="cls-3" d="M848.2,127.56V323.2c-.33,10-2.34,19.1-6,26.8a46.08,46.08,0,0,1-14.41,18.09c-6.7,5.36-15.75,8.38-27.8,8.38s-21.44-3-28.14-8.37A45.15,45.15,0,0,1,757.75,350c-3.69-7.71-5.7-16.75-6-26.8V127.56H787.9V323.2c0,7,1.67,11.73,5,15.41a9.6,9.6,0,0,0,7,2.68c6.36,0,9.38-4,10.72-9,1-2.34,1.34-5.36,1.34-9V127.56Z"/><path class="cls-3" d="M871.31,127.56h36.18V340.29H955.4v33.5H871.31Z"/><path class="cls-3" d="M940.65,164.75V127.56h104.52v37.19H1011v209H974.82v-209Z"/><path class="cls-3" d="M283.6,239.84c-1.9,0-2.7,1.3-3.2,2.8a10.83,10.83,0,0,0-.5,2.8v7.7h7.3v-7.7a7.05,7.05,0,0,0-1.4-4.8A3.11,3.11,0,0,0,283.6,239.84Z"/><path class="cls-3" d="M345.84,129.87l-69.18,57.86a68.6,68.6,0,1,0,33.82,25.16ZM235.27,240.94h-6.9v27.2a27.87,27.87,0,0,0,.4,5.7c.4,1.8,1.2,3.3,2.8,3.3a19.56,19.56,0,0,0,2.5-.2c.4-.1.8-.1,1.2-.2v9.9c-.5.1-1,.3-1.5.4a20.56,20.56,0,0,1-3.9.3c-5.9,0-8.7-3-10.1-6.8s-1.5-8.4-1.5-11.6v-28h-5.1v-9.1h5.1v-13.5h10.1v13.5h6.9Zm30.1,45.6h-10.1v-43.3c0-2.1-1.2-2.4-2.4-2.4a3.23,3.23,0,0,0-2.4,1.3,14.74,14.74,0,0,0-.9,1.3v43.1h-10.1V213h10.1v23.4a8.2,8.2,0,0,0,1.2-1.1,20.74,20.74,0,0,1,4.4-3.6,5.09,5.09,0,0,1,2.6-.7,6.7,6.7,0,0,1,5.8,3.6,15,15,0,0,1,1.8,7.1ZM296.6,261H279.9v11.9a7.74,7.74,0,0,0,1.6,4.7,2.86,2.86,0,0,0,2.1.8,3.16,3.16,0,0,0,3.2-2.7,7.89,7.89,0,0,0,.4-2.8v-6h9.4v6.3c-.3,5.3-1.9,9-5.5,11.9-1.8,1.5-4.3,2.2-7.6,2.2-6.5,0-9.8-3.6-11.4-7.2a20,20,0,0,1-1.6-7.2v-27.5c.3-5.3,2-9.2,5.6-12.2,1.7-1.5,4.2-2.2,7.5-2.2,6.5,0,9.8,3.6,11.4,7.1a19.44,19.44,0,0,1,1.6,7Z"/></g></svg>